# xmcd
#
# Track frame offsets:
#	150
#	14687
#	28912
#	49662
#	56387
#	90375
#	121912
#	146275
#	176787
#	189475
#	201462
#	209762
#
# Disc length: 2992 seconds
#
# Revision: 1
# Processed by: cddbd v1.5.1PL0 Copyright (c) Steve Scherf et al.
# Submitted via: CDex 1.50Beta5
#
DISCID=af0bae0c
DTITLE=POULENC - POULENC/GLORIA
DYEAR=1900
DGENRE=
TTITLE0=grolia
TTITLE1=2
TTITLE2=3
TTITLE3=4
TTITLE4=5
TTITLE5=6
TTITLE6=organ
TTITLE7=8
TTITLE8=9
TTITLE9=10
TTITLE10=11
TTITLE11=12
EXTD=
EXTT0=
EXTT1=
EXTT2=
EXTT3=
EXTT4=
EXTT5=
EXTT6=
EXTT7=
EXTT8=
EXTT9=
EXTT10=
EXTT11=
PLAYORDER=
